<?xml version="1.0"?>
<svg xmlns="http://www.w3.org/2000/svg" xmlns:xlink="http://www.w3.org/1999/xlink" id="a22d54ae-0e13-4a61-81b2-558c446a025e" data-name="Capa 1" viewBox="0 0 6137.76 2007.73">
  <defs>
    <style>.efc3c705-ea58-41df-a9c6-263aa96273f3{fill:none;}.af9bd153-248d-4ab6-8e12-46635d5d33c5{clip-path:url(#b6702147-d76b-4576-9135-911866107a53);}.aa0a3be9-b145-4fd0-9a95-38a6bb626c28{fill:url(#e5905844-63e3-42ce-9bb1-82178d9b964c);}.ae96bd95-6406-4736-b652-38de09c2cc68{fill:url(#eb2fb595-3071-46ea-9fc4-ec79e4036bf9);}.a6742e78-3299-4605-b32b-5a80636a389b{fill:url(#ae5f8067-10e6-4856-bf18-642da12a616d);}.a091a092-4fdb-450e-9e96-ad8b48b619e4{fill:url(#e5c6617a-5741-463b-b3f1-af7fb533e33d);}.ecdc14f4-ba52-43c2-ab2e-761f4724e4ac{fill:#f9f9f9;}.aaf8e51f-62a8-41d1-abf3-b5948751b225{fill:#f9f9fa;}</style>
    <clipPath id="b6702147-d76b-4576-9135-911866107a53" transform="translate(0 0)">
      <path class="efc3c705-ea58-41df-a9c6-263aa96273f3" d="M1330.13,883.75,1053.37,724,519.54,415.73c-29.64-17.11-59.17-6.75-59.17,29V1700.56c0,26.8,21.11,38.36,46.86,23.5s546.14-315.34,546.14-315.34L1330.12,1249l266-153.58c31.22-18,28.22-42.75,1.88-56.94s-267.89-154.68-267.89-154.68Z"/>
    </clipPath>
    <linearGradient id="e5905844-63e3-42ce-9bb1-82178d9b964c" x1="2794.16" y1="-316.91" x2="2794.16" y2="-203.61" gradientTransform="translate(-32726.71 4189.49) scale(12)" gradientUnits="userSpaceOnUse">
      <stop offset="0" stop-color="#257cb0"/>
      <stop offset="0.29" stop-color="#4a93b5"/>
      <stop offset="0.77" stop-color="#78bcbb"/>
      <stop offset="1" stop-color="#89cfbd"/>
    </linearGradient>
    <linearGradient id="eb2fb595-3071-46ea-9fc4-ec79e4036bf9" x1="2765.59" y1="-288.79" x2="2838.07" y2="-288.79" gradientTransform="translate(-32726.71 4189.49) scale(12)" gradientUnits="userSpaceOnUse">
      <stop offset="0" stop-color="#52c1ad"/>
      <stop offset="1" stop-color="#dee89a"/>
    </linearGradient>
    <linearGradient id="ae5f8067-10e6-4856-bf18-642da12a616d" x1="2801.83" y1="-260.26" x2="2801.83" y2="-203.2" gradientTransform="translate(-32726.71 4189.49) scale(12)" gradientUnits="userSpaceOnUse">
      <stop offset="0" stop-color="#ec413d"/>
      <stop offset="0.17" stop-color="#da4452"/>
      <stop offset="0.57" stop-color="#b0487a"/>
      <stop offset="0.86" stop-color="#954a92"/>
      <stop offset="1" stop-color="#8a4a9d"/>
    </linearGradient>
    <linearGradient id="e5c6617a-5741-463b-b3f1-af7fb533e33d" x1="2843.57" y1="-275.48" x2="2843.57" y2="-245.05" gradientTransform="translate(-32726.71 4189.49) scale(12)" gradientUnits="userSpaceOnUse">
      <stop offset="0" stop-color="#f58879"/>
      <stop offset="0.12" stop-color="#f69079"/>
      <stop offset="0.71" stop-color="#fcb877"/>
      <stop offset="1" stop-color="#fec874"/>
    </linearGradient>
  </defs>
  <path d="M6137.76,1736.39c0,149.83-121.45,271.34-271.26,271.34H271.32C121.5,2007.74,0,1886.23,0,1736.39V271.32C0,121.5,121.5,0,271.32,0H5866.49c149.81,0,271.26,121.5,271.26,271.32V1736.39Z" transform="translate(0 0)"/>
  <g class="af9bd153-248d-4ab6-8e12-46635d5d33c5">
    <path class="aa0a3be9-b145-4fd0-9a95-38a6bb626c28" d="M460.38,386.53V1746.17L1146,1066.36Z" transform="translate(0 0)"/>
  </g>
  <g class="af9bd153-248d-4ab6-8e12-46635d5d33c5">
    <path class="ae96bd95-6406-4736-b652-38de09c2cc68" d="M1330.13,883.75,1053.37,724l-593-342.38v4.94L1146,1066.36Z" transform="translate(0 0)"/>
  </g>
  <g class="af9bd153-248d-4ab6-8e12-46635d5d33c5">
    <path class="a6742e78-3299-4605-b32b-5a80636a389b" d="M460.38,1746.17v4.94l593-342.39,276.75-159.78L1146,1066.36Z" transform="translate(0 0)"/>
  </g>
  <g class="af9bd153-248d-4ab6-8e12-46635d5d33c5">
    <path class="a091a092-4fdb-450e-9e96-ad8b48b619e4" d="M1330.13,883.75,1146,1066.36l184.13,182.58,316.28-182.6Z" transform="translate(0 0)"/>
  </g>
  <path class="ecdc14f4-ba52-43c2-ab2e-761f4724e4ac" d="M4776.7,1332.13q-38.64,0-70.53-14.24t-53.59-43.83h-4.32a531.54,531.54,0,0,1,4.32,65.66v162.7h-59.86V929.51h48.7l8.28,54.12h2.88q23.11-32.49,53.77-46.9t70.33-14.43q78.66,0,121.41,53.76t42.75,150.79q0,97.41-43.45,151.37t-120.69,53.91Zm-8.67-359q-60.6,0-87.66,33.56t-27.79,106.8v13.33q0,83.36,27.79,119.26t89.1,35.88q51.27,0,80.31-41.48t29-114.38q0-73.94-29-113.46T4768,973.16Zm311.49,351.75h-59.88V763.55h59.88Zm344.31,0-11.91-56.28H5409q-29.59,37.18-59,50.33t-73.4,13.17q-58.8,0-92.18-30.3t-33.38-86.22q0-119.74,191.57-125.55l67.13-2.18v-24.52q0-46.56-20-68.73t-64-22.2q-49.46,0-111.84,30.3l-18.41-45.81A280.91,280.91,0,0,1,5259.52,932a277.31,277.31,0,0,1,69.8-9q70.71,0,104.81,31.39t34.08,100.66V1324.9h-44.38Zm-135.29-42.19q55.89,0,87.84-30.66t31.94-85.89v-35.71L5348.4,1133q-71.43,2.57-103,22.22t-31.56,61.15q0,32.46,19.67,49.41t55,17ZM5503,929.51h64.2l86.6,225.49q28.48,77.22,35.37,111.49H5692q4.69-18.43,19.66-63t97.94-274h64.25l-169.95,450.25q-25.23,66.75-59,94.74t-82.76,27.92a241.8,241.8,0,0,1-54.15-6.12v-48a209.21,209.21,0,0,0,44.39,4.33q61.71,0,88-69.28l22-56.27L5503,929.51ZM3667.31,966.25c19,15.73,58.7,48.78,58.7,111.67,0,61.17-34.74,90.17-69.48,117.42-10.75,10.74-23.16,22.36-23.16,40.58s12.4,28.09,21.53,35.54l29.78,23.11c36.39,30.61,69.44,58.75,69.44,115.84,0,77.73-75.27,156.27-217.49,156.27-119.94,0-177.8-57-177.8-118.28,0-29.76,14.81-71.92,63.68-100.9,51.24-31.42,120.76-35.52,157.95-38.06-11.61-14.87-24.81-30.59-24.81-56.18,0-14,4.15-22.32,8.27-32.3-9.13.84-18.22,1.67-26.5,1.67-87.63,0-137.25-65.34-137.25-129.81,0-38.06,17.38-80.26,52.9-110.82,47.16-38.87,103.4-45.51,148.1-45.51h170.32l-52.93,29.77h-51.25Zm-58.74,367.23c-6.61-.87-10.77-.87-19-.87-7.44,0-52.16,1.69-86.85,13.3-18.19,6.56-71.14,26.41-71.14,85.16s57.1,100.93,145.6,100.93c79.34,0,121.57-38.12,121.57-89.35,0-42.26-27.3-64.5-90.18-109.17Zm24-157.17c19-19,20.63-45.48,20.63-60.38,0-59.53-35.55-152.16-104.18-152.16-21.53,0-44.66,10.74-57.9,27.3-14,17.36-18.21,39.67-18.21,61.2,0,55.4,32.25,147.21,103.41,147.21,20.68,0,43-9.92,56.25-23.17Zm-485.93,143.93c-131.27,0-201.46-102.4-201.46-194.89,0-108.18,88.34-200.62,213.89-200.62,121.32,0,197.29,94.92,197.29,194.86,0,97.39-75.09,200.65-209.72,200.65Zm103.2-66.88c19.85-26.44,24.8-59.46,24.8-91.69,0-72.68-34.68-211.38-137.07-211.38-27.24,0-54.48,10.75-74.29,28.13-32.21,28.86-38,65.21-38,100.75,0,81.69,40.46,216.24,140.4,216.24,32.2,0,65.23-15.66,84.18-42.05Zm-550.74,66.88c-131.29,0-201.49-102.4-201.49-194.89,0-108.18,88.36-200.62,213.89-200.62,121.35,0,197.31,94.92,197.31,194.86C2908.82,1217,2833.7,1320.24,2699.1,1320.24Zm103.22-66.88c19.82-26.44,24.78-59.46,24.78-91.69,0-72.68-34.7-211.38-137.1-211.38-27.22,0-54.49,10.75-74.29,28.13-32.21,28.86-38,65.21-38,100.75,0,81.69,40.44,216.24,140.39,216.24C2750.33,1295.41,2783.34,1279.75,2802.32,1253.36Zm-367.78,53.93-118.73,27.4c-48.17,7.49-91.32,14.07-137,14.07-229.15,0-316.28-168.52-316.28-300.52,0-161,123.67-310.42,335.39-310.42a478.34,478.34,0,0,1,127,17.42c62.26,17.44,91.31,39,109.58,51.47l-68.92,65.58-29,6.61,20.74-33.21c-28.21-27.37-79.72-78-177.64-78-131.18,0-230,99.66-230,244.92,0,156,112.92,303,293.85,303,53.19,0,80.52-10.77,105.45-20.76V1161.19l-125.33,6.64,66.38-35.74h176l-21.57,20.75c-5.85,5-6.66,6.68-8.31,13.26-.87,7.49-1.65,31.58-1.65,39.88v101.31Z" transform="translate(0 0)"/>
  <path class="ecdc14f4-ba52-43c2-ab2e-761f4724e4ac" d="M3929.69,1283.39c-27.41-2.5-33.15-7.45-33.15-39.87V773.68c.17-1.79.28-3.63.45-5.36,3.35-29,11.64-34,37.4-49H3815.64l-62.28,29.89h63.47v.37l0-.3v512.51c0,16.57-3.28,19.09-22.39,44h147l30.72-18.22c-14.1-1.71-28.24-2.52-42.37-4.17Zm337.8,7.63c-9,5-18.11,10.75-27.15,14.84-27.25,12.36-55.27,15.68-80.05,15.68-26.31,0-67.57-1.71-109.65-32.18-58.49-41.25-84-112.15-84-174,0-127.76,103.87-190.42,188.78-190.42,29.69,0,60.23,7.41,85,23.1,41.19,27.16,51.9,62.61,57.64,81.58L4104.28,1108l-63.5,4.94c20.58,104.7,91.48,165.66,169.83,165.66,42,0,72.55-14.81,100.57-28.8L4267.49,1291ZM4190,1045.31c15.63-5.75,23.87-10.72,23.87-22.25,0-32.95-37.08-70.9-81.63-70.9-33,0-94.8,25.58-94.8,114.59,0,14,1.65,28.85,2.51,43.74L4190,1045.31Zm157-114.69V985h-6.61v-54.4h-18V925h42.6v5.64Zm74.16,54.4v-54.9h-.3L4404.17,985H4399l-16.9-54.9h-.22V985h-6V925h10.29l15.29,48.53h.21L4416.73,925h10.43v60Z" transform="translate(0 0)"/>
  <path class="aaf8e51f-62a8-41d1-abf3-b5948751b225" d="M2027.45,576.18h-41.26q0-8.52-11.73-48.22H1914.9q-12.12,39.06-12.12,48.22H1864q0-5,30.1-82.5t30.1-85.33h48.73q0,7.33,27.26,84.11T2027.45,576.18Zm-59.56-72.84q-22-66.51-22-71.93h-2.07q0,5-22.81,71.93Zm225.78,72.84h-31.83q0-5.29-35.45-55.81-37.12-53.25-42.28-72.83h-2.06a453.64,453.64,0,0,1,3.23,51q0,31.85,1.8,77.6h-31.72q1.93-40,1.93-87.78,0-47-1.93-80.05h38.28q0,6.84,31.84,54.53,33.89,50.66,38.93,68.71h1.93a487.5,487.5,0,0,1-3.1-51.56q0-34.92-1.8-71.68h32.23q-1.82,32-1.8,80.05Q2191.86,536.85,2193.67,576.18Zm186.83-89.72q0,36.6-23.46,63.93t-65.75,27.33q-19.08,0-52.59-1.55,1.66-38.94,1.68-87.78,0-46.9-1.68-80.05h22.56c3.69,0,9.19-.14,16.5-.39s12.07-.38,14.3-.38q46.53,0,67.49,23.21t20.95,55.68ZM2345.32,492q0-24.75-14.44-41.71t-44.09-17a134.54,134.54,0,0,0-15.21,1.17q1.27,25.78,1.28,53.88,0,30.81,1.28,61.1a85,85,0,0,0,16.75,1.68q27.72,0,41.06-17.22t13.36-42Zm207.46,84.18h-38.16q-15-45.63-22.94-56.33t-25.77-10.7c-5,0-9.76.05-14.31.13q0,33.13,1.17,66.9h-35.84q1.68-38.94,1.68-87.78,0-46.9-1.68-80h22.3q3.87,0,16.18-.39t22.75-.38q59.16,0,59.17,40.48,0,32.08-33.77,44.73v1.93q13,3.6,22.81,20.3T2552.78,576.18Zm-48.33-118.6q0-25.65-33-25.65a113.27,113.27,0,0,0-21.4,1.8q1.42,20,1.42,52.08c4.73.18,8.72.25,12,.25Q2504.44,486.08,2504.45,457.58Zm233.11,31.59q0,39.55-24.24,65.61t-59.94,26q-34,0-57-23.91t-22.94-60.77q0-39.57,24.24-65.62t59.94-26q34,0,57,23.85t22.94,60.84ZM2702,492.9q0-26.94-13.79-43.7t-34-16.76q-18.83,0-32,16.89T2609,492q0,26.81,13.86,43.63t34,16.83q18.81,0,32-17T2702,492.9Zm108.46,83.28H2774q1.67-40,1.68-87.78,0-47.06-1.68-80h36.48q-1.68,32.49-1.68,80Q2808.77,537,2810.45,576.18Zm186.84-89.72q0,36.6-23.46,63.93t-65.75,27.33q-19.08,0-52.6-1.55,1.68-38.94,1.68-87.78,0-46.9-1.68-80.05H2878c3.7,0,9.2-.14,16.5-.39s12.08-.38,14.31-.38q46.53,0,67.49,23.21t20.95,55.68ZM2962.1,492q0-24.75-14.43-41.71t-44.09-17a134.68,134.68,0,0,0-15.22,1.17q1.28,25.78,1.29,53.88,0,30.81,1.28,61.1a84.89,84.89,0,0,0,16.75,1.68q27.72,0,41.05-17.22T2962.1,492Zm283.06,84.18H3203.9q0-8.52-11.74-48.22H3132.6q-12.12,39.06-12.12,48.22H3081.7q0-5,30.09-82.5t30.1-85.33h48.73q0,7.33,27.26,84.11t27.28,83.72Zm-59.56-72.84q-22-66.51-22-71.93h-2.07q0,5-22.8,71.93Zm209.92-51q0,30.82-22.89,45.51t-56.13,14.69c-4.05,0-6.91-.08-8.64-.25q0,24.25,1.42,63.94h-36.23q1.66-37.24,1.68-87.78,0-46.41-1.68-80h22.42q4.77,0,18.3-.39t23.46-.38q24.48,0,41.38,11.09t16.91,33.62Zm-33.25,7.09q0-27.57-36.61-27.58a103.59,103.59,0,0,0-19.34,1.93q1.42,24.38,1.42,55.17c2.15.18,4.64.26,7.48.26Q3362.26,489.18,3362.27,459.38Zm187.86-7.09q0,30.82-22.87,45.51t-56.15,14.69c-4.05,0-6.91-.08-8.64-.25q0,24.25,1.41,63.94h-36.22q1.66-37.24,1.68-87.78,0-46.41-1.68-80h22.42q4.77,0,18.3-.39t23.46-.38q24.48,0,41.38,11.09t16.91,33.62Zm-33.25,7.09q0-27.57-36.61-27.58a103.59,103.59,0,0,0-19.34,1.93q1.43,24.38,1.42,55.17c2.15.18,4.64.26,7.48.26Q3516.87,489.18,3516.88,459.38Zm286,29.79q0,39.55-24.24,65.61t-59.94,26q-34,0-57-23.91t-22.94-60.77q0-39.57,24.24-65.62t59.94-26q34,0,57,23.85t22.95,60.84Zm-35.58,3.73q0-26.94-13.79-43.7t-34-16.76q-18.83,0-32,16.89T3674.39,492q0,26.81,13.86,43.63t34,16.83q18.83,0,32-17t13.15-42.6Zm210.3,83.28h-31.84q0-5.29-35.45-55.81-37.11-53.25-42.27-72.83H3866a453.64,453.64,0,0,1,3.23,51q0,31.85,1.8,77.6h-31.71q1.92-40,1.93-87.78,0-47-1.93-80.05h38.28q0,6.84,31.83,54.53,33.92,50.66,38.93,68.71h1.93A487.28,487.28,0,0,1,3947.2,480q0-34.92-1.8-71.68h32.23q-1.82,32-1.8,80.05Q3975.83,536.85,3977.63,576.18Z" transform="translate(0 0)"/>
</svg>
