<?xml version="1.0"?>
<svg xmlns="http://www.w3.org/2000/svg" id="e96da415-75aa-413d-a3f7-d18b5874f90c" data-name="Capa 1" viewBox="0 0 6137.76 2007.73">
  <defs>
    <style>.a1e9aa5c-d77b-4617-9587-afee745f21a6{fill:#fff;}</style>
  </defs>
  <path d="M6137.76,1736.39c0,149.83-121.45,271.34-271.26,271.34H271.32C121.5,2007.74,0,1886.23,0,1736.39V271.32C0,121.5,121.5,0,271.32,0H5866.49c149.81,0,271.26,121.5,271.26,271.32V1736.39Z" transform="translate(0 0)"/>
  <g id="a46b27db-e168-49f5-901d-34ff65301aa7">
    <path id="a468a8ff-90ae-461d-9a78-b54db8de8edc" class="a1e9aa5c-d77b-4617-9587-afee745f21a6" d="M1438.57,965.59c-1.19-141.74,116-210.63,121.16-213.8-66.52-96.6-169.46-110.07-205.49-111.25C1267.93,631.43,1184,692.4,1140,692.4c-44.74,0-112.84-50.68-185.69-49.49-93.83,1.59-182.13,55.83-230,140.56-99.38,172.23-25.34,425.62,70.08,565C842.3,1416.56,897.73,1493,971,1490.2c71.27-2.77,98.19-45.53,184.11-45.53,85.52,0,110.46,45.53,184.9,43.94,76.81-1.18,124.71-68.49,171-137.38,55-78,77.2-155.21,78-159.17-2-.79-148.86-57-150.45-226.47" transform="translate(0 0)"/>
    <path id="efe48706-137f-46ef-afa9-42b95a01610d" class="a1e9aa5c-d77b-4617-9587-afee745f21a6" d="M1298,549.08c38.4-47.91,64.53-113.24,57.41-179.75-55.43,2.37-125.12,38.4-165.11,85.52-35.23,41.57-66.91,109.27-59,173,62.56,4.75,126.7-31.68,166.69-78.79" transform="translate(0 0)"/>
  </g>
  <path id="eb262363-7cf4-4530-9849-3ce8a29d1670" class="a1e9aa5c-d77b-4617-9587-afee745f21a6" d="M2472.74,1480.3H2373l-54.64-171.83h-190l-51.87,171.83h-97l188.07-584.79h116.4l188.86,584.79Zm-170.65-243.89L2252.6,1084c-5.15-15.84-15-52.27-29.3-110.07h-2c-5.94,24.94-15,61.76-27.71,110.07l-48.7,152.43Z" transform="translate(0 0)"/>
  <path id="b126ceca-c904-4a75-9df8-bad25a317fb5" class="a1e9aa5c-d77b-4617-9587-afee745f21a6" d="M2956.16,1264.52c0,71.66-19.4,128.28-58.59,169.85-34.85,37.22-78.4,55.43-129.87,55.43-55.82,0-95.81-19.79-120.36-59.78v221.32H2553.5V1197.21c0-45.13-1.18-91.06-3.56-138.57h82.35l5.15,66.91H2639c31.27-50.28,78.79-75.62,142.13-75.62,49.89,0,91.07,19.79,124.32,59,34.05,39.59,50.68,91.06,50.68,155.6Zm-95.41,3.17c0-41.18-9.11-74.83-27.72-101.36-20.19-27.72-47.51-41.57-81.56-41.57-23,0-43.95,7.92-62.95,23a106,106,0,0,0-36.82,60.18c-2.78,11.48-4.36,21-4.36,28.51v70.47c0,30.49,9.5,56.62,28.11,77.61s43.16,31.67,73.25,31.67c35.23,0,62.55-13.86,82.35-40.78,19.8-27.32,29.7-63,29.7-107.69Z" transform="translate(0 0)"/>
  <path id="e5fd7cb2-110f-486b-9108-1e88f29e8837" class="a1e9aa5c-d77b-4617-9587-afee745f21a6" d="M3440.78,1264.52c0,71.66-19.4,128.28-58.6,169.85-34.84,37.22-78.39,55.43-129.86,55.43-55.83,0-95.82-19.79-120.36-59.78v221.32h-93.84V1197.21c0-45.13-1.19-91.06-3.56-138.57h82.35l5.15,66.91h1.58c31.28-50.28,78.79-75.62,142.14-75.62,49.89,0,91.06,19.79,124.32,59,34.05,39.59,50.68,91.06,50.68,155.6Zm-95.42,3.17c0-41.18-9.11-74.83-27.71-101.36-20.2-27.72-47.52-41.57-81.57-41.57-23,0-43.94,7.92-62.95,23-18.61,15.44-30.88,35.24-36.82,60.18-2.77,11.48-4.35,21-4.35,28.51v70.47c0,30.49,9.5,56.62,28.11,77.61s43.15,31.67,73.24,31.67c35.24,0,63-13.86,82.36-40.78,20.19-27.32,29.69-63,29.69-107.69Z" transform="translate(0 0)"/>
  <path id="ef3ea0fd-ad52-4d11-a076-5be19dc04c22" class="a1e9aa5c-d77b-4617-9587-afee745f21a6" d="M3983.2,1316.39c0,49.88-17.42,90.27-51.87,121.55q-57,51.07-159.16,51.07c-63,0-113.23-12.27-151.24-36.43l21.77-78c41.18,24.15,86.31,36.42,135.41,36.42,35.24,0,62.95-7.92,82.35-23.75,19.8-15.84,29.7-37.22,29.7-63.75,0-23.75-8.32-43.55-24.15-59.78q-24.36-24.36-80.77-45.14c-103.34-38.4-154.42-94.23-154.42-167.48,0-47.9,18.22-87.1,54.25-118,36-30.49,83.93-45.93,143.72-45.93,53.05,0,97.4,9.11,132.63,27.71l-23.75,76c-33.26-17.81-70.48-26.92-112.44-26.92-32.87,0-59,8.31-77.61,24.15-15.44,14.65-23.36,32.07-23.36,53.06,0,23,9.11,42.36,26.93,57,15.44,13.86,43.95,28.9,85.12,45.14,50.28,20.19,87.11,43.94,110.86,71.26,24.15,27.32,36,61.37,36,101.76" transform="translate(0 0)"/>
  <path id="a4fbe41c-dc73-428a-b58b-fbec7573457c" class="a1e9aa5c-d77b-4617-9587-afee745f21a6" d="M4293.61,1129.11H4190.27v204.7c0,51.86,18.21,78,54.64,78,16.63,0,30.49-1.58,41.57-4.35l2.77,71.27c-18.61,6.73-42.76,10.29-72.85,10.29-37.21,0-65.72-11.48-86.71-34s-31.27-60.58-31.27-113.63V1128.72h-61.37v-70.08h61.37V981.43l91.85-27.71v104.92h103.34v70.47" transform="translate(0 0)"/>
  <path id="e77937cd-bfea-4d3d-901d-e76b5772d7dc" class="a1e9aa5c-d77b-4617-9587-afee745f21a6" d="M4758.43,1266.1c0,64.94-18.61,118-55.43,159.56q-58.2,64.14-154.41,64.14c-61.77,0-111.26-20.59-148.08-61.37s-55-92.64-55-155.2c0-65.33,19-118.78,56.62-160.35,38-41.57,89.09-62.56,153.23-62.56,61.76,0,111.65,20.59,149.26,61.77,36,39.59,53.85,91.06,53.85,154Zm-97,2c0-38.8-8.32-71.66-25-99.38-19.79-33.65-47.91-50.28-84.33-50.28-37.61,0-66.52,16.63-85.92,50.28-17,27.72-24.94,61.37-24.94,101.36,0,38.8,8.31,72.06,24.94,99.38,20.2,33.65,48.7,50.28,85.13,50.28q53.45,0,84.33-51.07C4652.72,1340.14,4661.43,1306.88,4661.43,1268.08Z" transform="translate(0 0)"/>
  <path id="bddd3e86-cd2e-4317-8437-46cb7a001eae" class="a1e9aa5c-d77b-4617-9587-afee745f21a6" d="M5063.29,1141a173.83,173.83,0,0,0-29.69-2.38c-32.86,0-58.6,12.28-76.42,37.22-15.44,21.78-23.36,49.89-23.36,83.15V1480.3H4840v-289c0-48.7-.79-93-2.77-132.63h81.56l3.56,80.77h2.77c9.9-27.72,25.34-50.29,46.72-66.92q31.48-22.56,67.71-22.56a197.65,197.65,0,0,1,23.36,1.58l.39,89.48" transform="translate(0 0)"/>
  <path id="ec45f6a1-4093-4a79-aff2-72305a703576" class="a1e9aa5c-d77b-4617-9587-afee745f21a6" d="M5482.18,1249.47c0,16.63-1.18,30.89-3.56,42.37H5197.51c1.19,41.57,14.65,73.64,40.78,95.42,23.76,19.4,54.24,29.3,91.86,29.3,41.57,0,79.58-6.74,113.63-19.8l14.65,64.93q-60,26.13-141.35,26.13c-65.33,0-116.8-19.4-154-57.8s-55.83-90.27-55.83-154.81c0-63.35,17.42-116.4,52.26-158.77q54.65-67.7,147.29-67.7c60.58,0,106.9,22.57,137.78,67.7,24.94,36.43,37.61,80.38,37.61,133Zm-89.48-24.15c.8-27.71-5.54-51.86-18.21-72.06-16.23-26.13-41.17-39.19-74.43-39.19-30.49,0-55.43,12.67-74.44,38-15.44,20.19-24.94,44.74-27.71,72.85l194.79.39Z" transform="translate(0 0)"/>
  <g id="f13a812f-00e4-45a9-9b8c-1b4aecc95849">
    <path id="a7fe3ced-8b5c-44ea-bb2d-d7ab264ef7d5" class="a1e9aa5c-d77b-4617-9587-afee745f21a6" d="M2257,686.46h-49.09l-26.92-84.33H2087.5l-25.74,84.33h-47.51L2106.5,399h57Zm-84.33-120-24.15-75.23c-2.38-7.52-7.13-25.73-14.65-54.24H2133c-3.17,12.27-7.13,30.09-13.86,54.24l-23.75,75.23Z" transform="translate(0 0)"/>
    <path id="bef84531-773d-4271-a670-b8a94ec2e265" class="a1e9aa5c-d77b-4617-9587-afee745f21a6" d="M2488.18,479l-78.4,207.46H2365L2289,479h49.5l35.23,109.67c5.94,18.21,11.09,35.63,15.05,52.26H2390c3.56-15,8.71-32.46,15-52.26L2439.87,479h48.31" transform="translate(0 0)"/>
    <path id="f2714bd4-70dc-423a-8285-feb8a5486e12" class="a1e9aa5c-d77b-4617-9587-afee745f21a6" d="M2655.26,686.46l-3.56-23.75h-1.19q-21.39,28.5-60.58,28.51c-37.22,0-63.35-26.14-63.35-61,0-51.07,44.35-77.6,121.16-77.6v-4c0-27.32-14.65-40.78-43.16-40.78-20.59,0-38.41,5.15-54.24,15.44l-9.5-30.09c19-11.88,43.15-17.82,71.26-17.82,54.24,0,81.56,28.51,81.56,85.92v76.42c0,21,.8,37.21,3.17,49.49l-41.57-.8Zm-6.34-103.33c-51.07,0-76.81,12.27-76.81,42,0,21.77,13.07,32.46,31.68,32.46,23.36,0,45.13-17.82,45.13-42.36Z" transform="translate(0 0)"/>
    <path id="e923ef87-af76-459c-8541-0efb8807b316" class="a1e9aa5c-d77b-4617-9587-afee745f21a6" d="M2796.21,445c-15.44,0-27.32-11.88-27.32-27.72s12.27-27.32,28.11-27.32,28.51,11.49,28.11,27.32c0,16.63-11.88,27.72-28.9,27.72ZM2774,479H2820V686.07H2774Z" transform="translate(0 0)"/>
    <path id="bbbfc867-1e8a-4fc9-84bc-88e287cfe41c" class="a1e9aa5c-d77b-4617-9587-afee745f21a6" d="M2901.92,384h45.93V686.07h-45.93Z" transform="translate(0 0)"/>
    <path id="b49599c0-87dd-4903-854c-4b1f60af8b86" class="a1e9aa5c-d77b-4617-9587-afee745f21a6" d="M3143.44,686.46l-3.57-23.75h-1.18q-21.39,28.5-60.58,28.51c-37.22,0-63.35-26.14-63.35-61,0-51.07,44.35-77.6,121.16-77.6v-4c0-27.32-14.65-40.78-43.16-40.78-20.59,0-38.41,5.15-54.24,15.44L3029,492.86C3048,481,3072.17,475,3100.28,475c54.24,0,81.56,28.51,81.56,85.92v76.41c0,21,.79,37.22,2.77,49.49h-41.17v-.4Zm-6.34-103.33c-51.07,0-76.81,12.27-76.81,42,0,21.77,13.07,32.46,31.68,32.46,23.36,0,45.13-17.82,45.13-42.36Z" transform="translate(0 0)"/>
    <path id="ac6e8d4e-0ff3-48a4-81e7-da629d069d12" class="a1e9aa5c-d77b-4617-9587-afee745f21a6" d="M3368.72,691.22q-43.95,0-65.33-36.83h-.79l-2.77,32.07h-39.2c1.19-16.62,1.59-35.23,1.59-55.82V384h46.32v125.5h.79c13.86-23,35.63-34.44,66.12-34.44,49.89,0,84.73,42.76,84.73,104.92C3460.18,644.1,3421.38,691.22,3368.72,691.22Zm-9.5-180.15c-26.53,0-50.68,23-50.68,55v36.43c0,28.5,21.78,51.86,49.89,51.86,34.44,0,55-28.11,55-72.85C3413.46,539.57,3392.08,511.07,3359.22,511.07Z" transform="translate(0 0)"/>
    <path id="b8ab5ec8-3b84-47c8-b6d2-5ed9aceccb8f" class="a1e9aa5c-d77b-4617-9587-afee745f21a6" d="M3528.28,384h45.93V686.07h-45.93Z" transform="translate(0 0)"/>
    <path id="ba3cec5b-c947-4173-ac82-a0b09a8711b0" class="a1e9aa5c-d77b-4617-9587-afee745f21a6" d="M3824.83,593.82H3686.65c.79,39.19,26.92,61.37,65.33,61.37a155.77,155.77,0,0,0,55.82-9.9l7.13,32.07c-19.4,8.71-42.36,12.67-69.29,12.67-64.93,0-103.33-40.78-103.33-104.53,0-63.35,39.19-111.25,98.19-111.25,52.66,0,86.31,39.19,86.31,98.58,0,8.32-.4,15.44-2,21Zm-42-32.86c0-32.08-16.23-54.64-45.53-54.64-26.53,0-47.12,23-50.28,54.64Z" transform="translate(0 0)"/>
    <path id="aba2812c-dd05-46e3-9f24-e1713857071e" class="a1e9aa5c-d77b-4617-9587-afee745f21a6" d="M4104,691.22c-60.58,0-99.77-45.14-99.77-106.51,0-64.14,40-109.67,103.33-109.67,59.79,0,99.78,43.15,99.78,106.11C4207.3,645.68,4166.12,691.22,4104,691.22Zm2-182.53c-33.26,0-54.64,31.28-54.64,74.44,0,42.76,21.78,73.64,54.24,73.64s54.24-33.26,54.24-74.83c-.39-42-21.38-73.25-53.84-73.25Z" transform="translate(0 0)"/>
    <path id="aac4e6df-35d7-4ca0-ad80-23f5156046a4" class="a1e9aa5c-d77b-4617-9587-afee745f21a6" d="M4454.75,686.46h-45.93V567.29c0-36.82-14.25-55-42-55-27.32,0-45.93,23.36-45.93,50.67V686.07H4275V538.39c0-18.22-.4-38-1.58-59.39h40.38l2,32.07H4317c12.27-22.17,37.61-36.43,65.72-36.43,43.55,0,72.06,33.26,72.06,87.5V686.46" transform="translate(0 0)"/>
    <path id="afebcc21-be3f-47e8-a0f5-1eacca3454e6" class="a1e9aa5c-d77b-4617-9587-afee745f21a6" d="M4756.05,513.84h-50.68V614.41c0,25.73,9.11,38.4,26.93,38.4a100.65,100.65,0,0,0,20.59-2l1.18,34.84c-9.1,3.57-21,5.15-35.63,5.15-36.43,0-57.81-20.19-57.81-72.46V513.84h-30.09V479.39h30.09v-38l45.14-13.85V479h50.68v34.84" transform="translate(0 0)"/>
    <path id="b758d7a2-3c98-4c67-b575-bf7e640a6f7a" class="a1e9aa5c-d77b-4617-9587-afee745f21a6" d="M4999.94,686.46H4954V568.08c0-37.22-14.26-55.82-42-55.82-23.76,0-45.93,16.23-45.93,49.09V686.07h-45.93V384h45.93V508.3h.79c14.65-22.57,35.24-33.66,62.16-33.66,44,0,70.87,34.05,70.87,88.29V686.46" transform="translate(0 0)"/>
    <path id="af83d32f-9a18-4ac4-a88f-f814429282fc" class="a1e9aa5c-d77b-4617-9587-afee745f21a6" d="M5235.13,593.82H5097c.79,39.19,26.92,61.37,65.32,61.37a155.86,155.86,0,0,0,55.83-9.9l7.13,32.07c-19.4,8.71-42.37,12.67-69.29,12.67C5091,690,5052.6,649.25,5052.6,585.5c0-63.35,39.2-111.25,98.19-111.25,52.66,0,86.31,39.19,86.31,98.58C5237.1,581.15,5236.71,588.27,5235.13,593.82Zm-42-32.86c0-32.08-16.24-54.64-45.53-54.64-26.53,0-47.52,23-50.29,54.64Z" transform="translate(0 0)"/>
  </g>
</svg>
